<?xml version="1.0" standalone="no"?>
<!DOCTYPE svg PUBLIC "-//W3C//DTD SVG 20010904//EN"
 "http://www.w3.org/TR/2001/REC-SVG-20010904/DTD/svg10.dtd">
<svg version="1.0" xmlns="http://www.w3.org/2000/svg"
 width="11435.000000pt" height="4860.000000pt" viewBox="0 0 11435.000000 4860.000000"
 preserveAspectRatio="xMidYMid meet">

<g transform="translate(0.000000,4860.000000) scale(0.100000,-0.100000)"
fill="#000000" stroke="none">
<path d="M26535 38529 c-2846 -61 -5560 -401 -8135 -1019 -437 -105 -449 -109
-455 -134 -50 -203 -92 -382 -90 -384 2 -2 108 17 236 42 716 138 1348 241
2089 340 550 74 1321 159 1680 186 159 12 570 13 570 2 0 -4 -73 -32 -162 -61
-467 -154 -1146 -425 -1758 -702 -425 -192 -1233 -606 -1686 -864 -1824 -1039
-3581 -2394 -4679 -3608 -54 -60 -97 -98 -136 -119 -51 -26 -71 -48 -167 -177
-60 -80 -155 -216 -211 -301 -101 -153 -136 -202 -91 -125 102 172 331 490
489 679 281 337 937 989 1353 1346 54 46 77 74 82 95 15 79 357 2757 352 2762
-12 12 -884 -250 -1381 -415 -2548 -846 -4798 -2055 -6570 -3531 -594 -495
-1181 -1064 -1660 -1611 -416 -476 -839 -1041 -1147 -1535 -197 -315 -431
-753 -535 -1001 -114 -271 -210 -695 -243 -1079 -23 -279 -8 -726 35 -1013
146 -976 637 -2023 1323 -2820 958 -1116 2174 -2428 3287 -3550 3639 -3667
7204 -6367 10751 -8140 198 -99 389 -192 425 -207 119 -50 504 -228 509 -235
7 -9 328 -144 561 -235 354 -139 787 -286 1099 -372 84 -24 258 -125 233 -135
-10 -4 -142 -32 -293 -62 -1090 -217 -2049 -336 -3052 -377 -315 -14 -365 -11
-753 37 -806 99 -1547 268 -2075 472 l-105 40 -295 12 c-634 24 -1209 76
-1622 145 -164 28 -411 101 -577 172 -284 120 -799 391 -1110 585 -1121 699
-2237 1757 -3143 2978 -1196 1614 -2066 3512 -2618 5710 -94 374 -206 919
-241 1168 -7 50 -16 89 -20 85 -9 -10 -62 -501 -89 -813 -54 -647 -70 -991
-77 -1650 -10 -1022 38 -1838 162 -2760 303 -2241 1053 -4242 2119 -5658 381
-506 810 -945 1237 -1270 253 -191 460 -316 756 -456 526 -249 1115 -427 1868
-566 940 -172 2134 -224 3305 -145 2316 158 4881 811 7585 1930 l160 66 104
-11 c133 -13 409 -13 542 0 846 84 1669 501 2489 1262 l145 134 210 98 c1895
890 3749 1922 5285 2941 442 293 814 553 665 464 -22 -13 -236 -141 -475 -285
-1566 -940 -3065 -1734 -4455 -2359 -225 -101 -645 -284 -702 -306 -15 -6 18
43 95 139 420 521 807 1116 1173 1798 61 114 128 231 150 260 270 365 763
1284 1245 2318 l79 168 100 52 c647 337 1746 1333 2960 2681 99 110 222 245
275 300 662 696 1212 1528 1385 2098 52 172 105 487 82 487 -4 0 -27 -41 -52
-90 -60 -119 -210 -380 -320 -555 -413 -658 -927 -1337 -1524 -2015 -587 -666
-1508 -1574 -2186 -2154 -148 -127 -460 -380 -522 -424 l-32 -23 50 113 c890
1983 1885 4419 2976 7288 155 408 222 601 223 643 0 21 87 334 100 362 14 29
106 378 235 895 108 434 130 530 190 805 15 66 55 248 90 405 589 2639 832
4804 699 6240 -40 441 -111 780 -248 1193 -353 1064 -891 1897 -1586 2452
-254 203 -519 361 -777 464 -120 47 -446 148 -655 201 -616 158 -1438 250
-2240 250 l-258 0 0 -152 c0 -84 -27 -2293 -60 -4908 -33 -2615 -78 -6181 -99
-7925 -22 -1743 -45 -3246 -51 -3340 -66 -1020 -441 -1950 -1109 -2755 -130
-156 -407 -432 -571 -568 -752 -625 -1635 -986 -2604 -1063 -214 -17 -683 -7
-901 20 -578 69 -1062 211 -1570 461 -870 426 -1580 1093 -2067 1942 -615
1072 -788 2383 -472 3588 74 281 187 590 313 854 239 500 598 999 993 1381
825 798 1849 1263 2993 1356 190 15 717 6 895 -15 795 -98 1501 -356 2128
-779 75 -50 140 -93 145 -95 4 -2 7 2676 7 5952 0 4626 -3 5956 -12 5956 -9 0
-9 3 0 12 7 7 12 27 12 45 l0 33 -112 -2 c-62 -1 -270 -5 -463 -9z m-2110
-477 c-27 -15 -286 -160 -574 -321 l-523 -294 -232 36 c-127 20 -320 49 -430
64 -227 31 -227 23 -1 89 611 180 1003 281 1660 427 145 33 160 32 100 -1z
m-10915 -6512 c-6 -11 -13 -20 -16 -20 -2 0 0 9 6 20 6 11 13 20 16 20 2 0 0
-9 -6 -20z m-40 -67 c-12 -21 -43 -75 -67 -120 -46 -86 -70 -115 -32 -40 35
69 110 197 116 197 3 0 -5 -17 -17 -37z m1773 -178 c445 -58 854 -264 1162
-586 274 -286 446 -629 522 -1039 17 -89 18 -322 23 -3860 l5 -3765 22 -130
c77 -465 222 -847 448 -1185 110 -164 173 -242 303 -374 302 -308 655 -507
1057 -597 98 -22 117 -23 813 -26 l712 -4 0 -1051 0 -1050 -477 5 c-341 4
-517 10 -613 21 -751 88 -1419 329 -2020 729 -786 524 -1340 1235 -1735 2230
-219 553 -337 1047 -416 1742 -13 116 -26 3107 -28 6428 l-1 2527 54 0 c30 0
106 -7 169 -15z m-1945 -140 c-29 -57 -54 -103 -56 -101 -4 5 96 206 103 206
3 0 -19 -47 -47 -105z m-92 -192 c-14 -26 -25 -45 -26 -41 0 12 43 98 48 94 2
-2 -8 -26 -22 -53z m-45 -100 c-11 -21 -20 -35 -21 -31 0 12 33 78 38 74 2 -2
-6 -21 -17 -43z m-42 -102 c-12 -28 -24 -50 -26 -48 -2 2 6 27 18 56 12 28 24
50 26 48 2 -2 -6 -27 -18 -56z m-50 -125 c-12 -31 -24 -55 -26 -53 -2 2 6 30
18 61 12 31 24 55 26 53 2 -2 -6 -30 -18 -61z m-45 -120 c-9 -26 -18 -45 -20
-43 -2 2 3 25 12 51 9 26 18 45 20 43 2 -2 -3 -25 -12 -51z m-100 -300 c-3
-15 -8 -25 -11 -23 -2 3 -1 17 3 31 3 15 8 25 11 23 2 -3 1 -17 -3 -31z m-30
-100 c-3 -15 -8 -25 -11 -23 -2 3 -1 17 3 31 3 15 8 25 11 23 2 -3 1 -17 -3
-31z m-17 -58 c-3 -8 -6 -5 -6 6 -1 11 2 17 5 13 3 -3 4 -12 1 -19z m-20 -70
c-3 -8 -6 -5 -6 6 -1 11 2 17 5 13 3 -3 4 -12 1 -19z m-10 -40 c-3 -8 -6 -5
-6 6 -1 11 2 17 5 13 3 -3 4 -12 1 -19z m-10 -40 c-3 -8 -6 -5 -6 6 -1 11 2
17 5 13 3 -3 4 -12 1 -19z m-10 -40 c-3 -8 -6 -5 -6 6 -1 11 2 17 5 13 3 -3 4
-12 1 -19z m-10 -40 c-3 -8 -6 -5 -6 6 -1 11 2 17 5 13 3 -3 4 -12 1 -19z
m-10 -40 c-3 -8 -6 -5 -6 6 -1 11 2 17 5 13 3 -3 4 -12 1 -19z m-10 -40 c-3
-8 -6 -5 -6 6 -1 11 2 17 5 13 3 -3 4 -12 1 -19z m-10 -50 c-3 -8 -6 -5 -6 6
-1 11 2 17 5 13 3 -3 4 -12 1 -19z m-10 -50 c-3 -7 -5 -2 -5 12 0 14 2 19 5
13 2 -7 2 -19 0 -25z m-10 -40 c-3 -8 -6 -5 -6 6 -1 11 2 17 5 13 3 -3 4 -12
1 -19z m-10 -60 c-3 -7 -5 -2 -5 12 0 14 2 19 5 13 2 -7 2 -19 0 -25z m-10
-50 c-3 -7 -5 -2 -5 12 0 14 2 19 5 13 2 -7 2 -19 0 -25z m-10 -50 c-3 -7 -5
-2 -5 12 0 14 2 19 5 13 2 -7 2 -19 0 -25z m-10 -60 c-3 -7 -5 -2 -5 12 0 14
2 19 5 13 2 -7 2 -19 0 -25z m-10 -60 c-3 -7 -5 -2 -5 12 0 14 2 19 5 13 2 -7
2 -19 0 -25z m-10 -65 c-3 -10 -5 -4 -5 12 0 17 2 24 5 18 2 -7 2 -21 0 -30z
m-10 -60 c-3 -10 -5 -4 -5 12 0 17 2 24 5 18 2 -7 2 -21 0 -30z m-10 -80 c-3
-10 -5 -2 -5 17 0 19 2 27 5 18 2 -10 2 -26 0 -35z m-10 -80 c-3 -10 -5 -2 -5
17 0 19 2 27 5 18 2 -10 2 -26 0 -35z m-10 -80 c-3 -10 -5 -2 -5 17 0 19 2 27
5 18 2 -10 2 -26 0 -35z m-10 -95 c-2 -13 -4 -5 -4 17 -1 22 1 32 4 23 2 -10
2 -28 0 -40z m-10 -115 c-2 -16 -4 -5 -4 22 0 28 2 40 4 28 2 -13 2 -35 0 -50z
m-10 -135 c-2 -18 -4 -6 -4 27 0 33 2 48 4 33 2 -15 2 -42 0 -60z m-10 -165
c-2 -21 -4 -6 -4 32 0 39 2 55 4 38 2 -18 2 -50 0 -70z m-10 -460 c-1 -43 -3
-10 -3 72 0 83 2 118 3 78 2 -40 2 -107 0 -150z m10 -375 c-3 -8 -6 -5 -6 6
-1 11 2 17 5 13 3 -3 4 -12 1 -19z"/>
<path d="M42010 24720 l0 -13250 135 0 135 0 0 13250 0 13250 -135 0 -135 0 0
-13250z"/>
<path d="M44930 30450 l0 -2250 2945 0 2945 0 0 895 0 895 -1877 2 -1878 3 -3
1353 -2 1352 -1065 0 -1065 0 0 -2250z"/>
<path d="M52340 30455 l0 -2245 1065 0 1065 0 0 2245 0 2245 -1065 0 -1065 0
0 -2245z"/>
<path d="M56136 32598 c29 -586 106 -1025 264 -1498 408 -1226 1248 -2118
2430 -2582 942 -370 2192 -494 3495 -348 654 74 1438 240 2008 426 l137 45 0
2030 0 2029 -1760 0 -1760 0 0 -370 0 -370 730 0 730 0 0 -999 0 -999 -82 -25
c-234 -73 -663 -115 -1058 -104 -531 16 -950 114 -1370 323 -649 323 -1104
858 -1346 1582 -81 243 -131 487 -161 790 l-17 172 -1122 0 -1123 0 5 -102z"/>
<path d="M66390 30455 l0 -2245 1065 0 1065 0 0 1980 0 1980 1770 0 1770 0 0
-1980 0 -1980 1065 0 1065 0 0 2245 0 2245 -3900 0 -3900 0 0 -2245z"/>
<path d="M78120 30455 l0 -2245 1065 0 1065 0 0 2245 0 2245 -1065 0 -1065 0
0 -2245z"/>
<path d="M84220 30455 l0 -2245 1070 0 1070 0 0 2245 0 2245 -1070 0 -1070 0
0 -2245z"/>
<path d="M88460 30455 l0 -2245 980 0 980 0 0 1908 c0 1049 -3 2059 -7 2245
l-6 337 -974 0 -973 0 0 -2245z"/>
<path d="M91570 32694 c0 -18 412 -773 905 -1659 664 -1193 1401 -2518 1489
-2677 l81 -147 1123 -1 1122 0 0 2245 0 2245 -960 0 -961 0 6 -87 c3 -49 12
-207 21 -353 24 -426 79 -1115 100 -1268 6 -41 5 -44 -17 -40 -19 3 -34 30
-101 198 -158 391 -387 913 -595 1355 l-90 190 -1061 3 c-584 1 -1062 -1
-1062 -4z"/>
<path d="M97940 32683 c0 -10 5 -97 10 -193 42 -737 208 -1390 500 -1978 213
-428 436 -739 764 -1067 438 -437 906 -734 1513 -961 856 -319 1986 -440 3153
-339 737 64 1592 234 2246 446 l154 50 0 2029 0 2030 -1765 0 -1765 0 0 -370
0 -370 735 0 735 0 -2 -997 -3 -998 -64 -23 c-91 -32 -280 -68 -466 -88 -231
-25 -747 -25 -940 -1 -485 63 -881 194 -1240 412 -669 406 -1118 1101 -1265
1960 -21 126 -50 374 -50 438 l0 37 -1125 0 c-1065 0 -1125 -1 -1125 -17z"/>
<path d="M68440 25443 c-193 -11 -504 -38 -675 -59 -2473 -304 -4342 -1570
-5210 -3529 -301 -679 -480 -1438 -535 -2270 -13 -197 -13 -782 0 -977 77
-1142 404 -2173 956 -3016 677 -1032 1682 -1769 2942 -2157 608 -187 1200
-289 2007 -347 281 -20 1192 -17 1475 5 1114 87 2184 293 3185 614 l120 39 3
3202 2 3202 -2265 0 -2265 0 0 -1075 0 -1075 940 0 940 0 0 -1270 0 -1269 -27
-15 c-37 -18 -149 -51 -243 -71 -421 -88 -1145 -115 -1623 -60 -1317 153
-2332 844 -2863 1950 -203 424 -329 880 -390 1420 -21 187 -30 761 -15 966 78
1046 427 1865 1058 2480 620 604 1438 943 2508 1040 294 27 964 14 1390 -27
625 -60 1249 -209 1752 -417 l131 -55 21 77 c65 245 551 2113 551 2119 0 16
-335 145 -535 207 -628 195 -1383 318 -2235 365 -164 9 -956 11 -1100 3z"/>
<path d="M47770 25414 c-41 -2 -199 -8 -350 -14 -825 -32 -1630 -104 -2362
-211 l-158 -23 0 -5963 c0 -3280 4 -5963 8 -5963 5 0 60 -7 123 -15 1060 -140
2853 -202 3914 -135 2030 129 3604 651 4690 1558 121 102 491 473 594 597 763
919 1213 2053 1350 3406 57 556 59 1185 5 1714 -90 895 -349 1707 -760 2387
-476 787 -1213 1452 -2103 1897 -754 378 -1604 603 -2681 710 -469 47 -630 53
-1430 56 -421 1 -799 1 -840 -1z m1508 -2114 c644 -46 1197 -190 1672 -436
651 -338 1140 -869 1433 -1555 292 -683 398 -1579 302 -2534 -143 -1403 -718
-2415 -1711 -3006 -530 -315 -1168 -496 -1934 -549 -322 -22 -1088 -9 -1311
23 l-84 12 -3 3977 -2 3976 27 6 c163 34 468 71 708 85 208 12 735 12 903 1z"/>
<path d="M23854 25394 c-1087 -131 -2002 -909 -2308 -1961 -138 -477 -142
-1024 -11 -1493 149 -533 444 -999 853 -1351 409 -351 870 -560 1422 -646 174
-27 575 -24 765 5 599 93 1128 358 1548 776 423 421 693 958 783 1558 36 239
29 617 -16 868 -134 741 -569 1399 -1202 1816 -344 227 -767 380 -1185 429
-158 18 -495 18 -649 -1z"/>
<path d="M57440 19260 l0 -6070 1370 0 1370 0 0 6070 0 6070 -1370 0 -1370 0
0 -6070z"/>
<path d="M74860 19260 l0 -6070 1370 0 1370 0 0 6070 0 6070 -1370 0 -1370 0
0 -6070z"/>
<path d="M79060 24180 l0 -1150 1635 0 1635 0 0 -4920 0 -4920 1375 0 1375 0
0 4920 0 4920 1660 0 1660 0 0 1150 0 1150 -4670 0 -4670 0 0 -1150z"/>
<path d="M91376 25283 c-8 -27 -834 -2732 -1836 -6013 -1001 -3281 -1829
-5991 -1840 -6023 l-19 -57 1421 2 1421 3 427 1555 428 1555 1745 3 1745 2 14
-47 c8 -27 219 -729 468 -1560 l454 -1513 1478 0 c813 0 1478 1 1478 3 0 1
-850 2731 -1888 6067 l-1889 6065 -1796 3 -1795 2 -16 -47z m1828 -2435 c401
-1581 373 -1477 865 -3156 215 -734 391 -1335 391 -1338 0 -2 -603 -4 -1341
-4 l-1341 0 7 28 c3 15 171 610 371 1322 457 1619 450 1594 680 2615 112 497
210 917 219 943 2 6 13 12 23 12 16 0 33 -56 126 -422z"/>
<path d="M100380 19260 l0 -6070 3790 0 3790 0 0 1150 0 1150 -2415 0 -2415 0
0 4920 0 4920 -1375 0 -1375 0 0 -6070z"/>
<path d="M93282 10110 c-225 -41 -365 -159 -427 -360 -10 -32 -19 -107 -22
-182 l-6 -128 -108 0 -109 0 0 -165 0 -165 110 0 110 0 0 -600 0 -600 240 0
240 0 0 600 0 600 150 0 150 0 0 165 0 165 -150 0 -150 0 0 83 c1 173 72 236
258 224 l82 -5 0 173 0 173 -52 12 c-71 16 -251 21 -316 10z"/>
<path d="M59980 9000 l0 -1090 235 0 235 0 0 549 0 548 25 27 c55 59 184 84
287 56 44 -13 93 -66 107 -117 7 -24 11 -224 11 -550 l0 -513 240 0 241 0 -3
568 c-3 504 -6 574 -21 627 -73 248 -227 364 -482 365 -143 0 -251 -41 -343
-131 -28 -27 -53 -49 -56 -49 -3 0 -6 180 -6 400 l0 400 -235 0 -235 0 0
-1090z"/>
<path d="M69720 9000 l0 -1090 214 0 215 0 6 58 c10 89 10 89 63 40 96 -90
196 -128 337 -128 311 1 509 195 570 559 24 141 16 427 -14 549 -76 304 -252
464 -526 479 -150 8 -254 -24 -350 -109 l-35 -30 0 381 0 381 -240 0 -240 0 0
-1090z m793 87 c47 -20 103 -88 123 -149 22 -69 31 -362 15 -467 -24 -157 -92
-221 -233 -221 -88 0 -139 21 -186 74 l-32 37 0 315 0 315 38 40 c20 22 55 46
77 54 51 18 156 19 198 2z"/>
<path d="M71380 9000 l0 -1090 240 0 240 0 0 1090 0 1090 -240 0 -240 0 0
-1090z"/>
<path d="M74620 9704 l0 -386 -47 42 c-86 75 -182 110 -302 110 -300 -1 -494
-185 -573 -545 -20 -94 -17 -409 6 -515 73 -342 273 -529 567 -530 129 0 221
36 317 125 68 62 66 63 78 -37 l6 -58 214 0 214 0 0 1090 0 1090 -240 0 -240
0 0 -386z m-103 -628 c33 -16 60 -38 77 -62 l26 -39 0 -304 0 -304 -26 -35
c-38 -49 -114 -82 -192 -82 -109 0 -170 48 -215 166 -19 53 -21 79 -22 249 0
212 10 263 65 347 58 88 177 115 287 64z"/>
<path d="M83830 9000 l0 -1090 240 0 240 0 0 1090 0 1090 -240 0 -240 0 0
-1090z"/>
<path d="M78131 10053 c-155 -56 -200 -254 -86 -369 73 -73 206 -96 318 -54
187 70 201 320 22 413 -54 28 -191 34 -254 10z"/>
<path d="M80612 10058 c-44 -15 -122 -85 -138 -125 -21 -48 -18 -146 5 -191
23 -44 63 -83 111 -107 50 -26 164 -31 232 -11 153 44 213 223 118 354 -43 60
-106 86 -210 89 -47 1 -100 -3 -118 -9z"/>
<path d="M101740 10061 c-106 -33 -170 -115 -170 -221 0 -133 91 -219 241
-228 122 -7 206 31 256 115 23 40 28 59 28 113 -1 107 -52 179 -154 215 -45
16 -158 19 -201 6z"/>
<path d="M45067 8952 c-207 -565 -377 -1031 -377 -1035 0 -4 118 -7 263 -7
l263 0 59 190 58 190 345 -2 345 -3 57 -185 57 -185 266 -3 c147 -1 267 0 267
2 0 5 -730 1986 -751 2039 l-11 27 -232 0 -232 0 -377 -1028z m723 82 l108
-349 -215 -3 c-119 -1 -218 0 -221 2 -2 3 44 163 103 356 60 192 110 348 112
346 3 -2 53 -161 113 -352z"/>
<path d="M48378 9218 c-3 -699 -5 -767 -21 -807 -42 -106 -115 -157 -216 -149
-121 9 -180 71 -189 199 l-5 69 -248 0 -249 0 0 -58 c0 -73 30 -193 67 -269
35 -72 120 -165 196 -214 68 -44 182 -84 287 -100 95 -14 295 -6 375 16 240
66 416 240 475 471 19 74 20 114 20 841 l0 763 -245 0 -244 0 -3 -762z"/>
<path d="M64920 8945 l0 -1035 715 0 715 0 0 190 0 190 -465 0 -465 0 0 245 0
245 390 0 390 0 0 185 0 185 -390 0 -390 0 0 220 0 220 465 0 465 0 0 195 0
195 -715 0 -715 0 0 -1035z"/>
<path d="M76128 9974 c-5 -4 -8 -470 -8 -1036 l0 -1028 400 0 c438 0 477 4
634 61 111 41 206 99 293 183 134 126 219 273 270 461 25 95 27 112 27 325 0
211 -2 231 -26 322 -87 321 -293 554 -579 654 -147 51 -188 56 -609 61 -217 3
-398 2 -402 -3z m835 -413 c79 -31 165 -112 205 -194 57 -116 67 -176 67 -427
0 -250 -10 -311 -67 -427 -38 -77 -117 -154 -195 -191 -53 -24 -71 -27 -205
-30 l-148 -4 0 652 0 652 143 -4 c116 -4 152 -9 200 -27z"/>
<path d="M85160 9785 l0 -195 305 0 305 0 0 -840 0 -840 250 0 250 0 0 840 0
840 310 0 310 0 0 195 0 195 -865 0 -865 0 0 -195z"/>
<path d="M59068 9638 l-3 -193 -97 -3 -98 -3 0 -164 0 -165 100 0 99 0 3 -457
c3 -446 4 -460 25 -517 46 -121 115 -188 238 -228 62 -20 88 -23 225 -22 103
1 172 6 205 16 l50 14 3 172 2 171 -77 -5 c-93 -7 -146 8 -177 49 -20 28 -21
41 -24 418 l-3 389 130 0 131 0 0 165 0 164 -127 3 -128 3 -3 193 -2 192 -235
0 -235 0 -2 -192z"/>
<path d="M63257 9823 c-4 -3 -7 -91 -7 -195 l0 -188 -95 0 -95 0 0 -165 0
-165 94 0 94 0 4 -442 c4 -416 5 -447 25 -505 46 -137 120 -215 241 -254 118
-38 338 -37 460 2 l32 11 0 167 0 167 -99 -1 c-86 0 -103 3 -128 21 -49 37
-52 59 -52 462 l-1 372 130 0 130 0 0 165 0 164 -127 3 -128 3 -3 193 -2 192
-234 0 c-128 0 -236 -3 -239 -7z"/>
<path d="M81340 9635 l0 -195 -100 0 -100 0 0 -165 0 -165 100 0 100 0 0 -427
c0 -342 3 -441 15 -491 41 -172 149 -272 329 -303 82 -14 278 -6 351 14 l50
13 3 170 2 171 -87 -1 c-111 -1 -139 7 -163 47 -19 30 -20 52 -20 420 l0 387
125 0 125 0 0 165 0 165 -125 0 -125 0 -2 193 -3 192 -237 3 -238 2 0 -195z"/>
<path d="M100650 9635 l0 -195 -100 0 -100 0 0 -165 0 -165 99 0 100 0 3 -447
c3 -433 4 -450 26 -515 40 -119 118 -198 239 -240 61 -20 85 -23 223 -22 103
1 172 6 205 16 l50 14 3 170 2 169 -97 0 c-62 0 -107 5 -121 13 -49 28 -52 53
-52 462 l0 380 125 0 125 0 0 165 0 165 -125 0 -125 0 0 195 0 195 -240 0
-240 0 0 -195z"/>
<path d="M49670 9455 c-145 -31 -250 -85 -346 -180 -149 -147 -215 -332 -215
-600 1 -275 61 -445 211 -596 83 -84 189 -144 310 -176 102 -28 350 -25 453 5
246 71 406 241 478 507 32 118 33 381 1 510 -37 149 -90 245 -191 345 -92 92
-178 142 -296 175 -83 23 -318 29 -405 10z m300 -387 c96 -59 140 -182 140
-391 0 -140 -15 -221 -53 -297 -45 -90 -93 -123 -188 -128 -92 -6 -146 15
-198 74 -22 25 -47 66 -56 92 -26 77 -37 230 -26 351 22 231 100 330 261 331
57 0 73 -4 120 -32z"/>
<path d="M53145 9456 c-86 -27 -153 -80 -205 -163 l-27 -43 -7 47 c-3 25 -6
68 -6 94 l0 49 -225 0 -225 0 0 -765 0 -765 235 0 235 0 0 484 0 483 23 34
c55 82 151 114 313 106 l111 -5 7 105 c3 59 6 159 6 223 l0 118 -31 6 c-51 10
-161 6 -204 -8z"/>
<path d="M54290 9454 c-89 -23 -172 -69 -231 -128 l-56 -56 -7 46 c-3 26 -6
64 -6 85 l0 39 -225 0 -225 0 0 -765 0 -765 235 0 235 0 0 540 0 539 32 37
c47 54 98 74 188 74 97 0 154 -26 184 -85 20 -39 21 -57 24 -572 l3 -533 240
0 240 0 -3 578 c-4 564 -4 579 -26 651 -31 100 -56 146 -113 206 -54 57 -106
87 -194 110 -74 19 -221 19 -295 -1z"/>
<path d="M55700 9455 c-350 -79 -541 -333 -558 -742 -11 -278 55 -466 218
-623 112 -109 246 -173 412 -200 108 -18 302 -8 397 20 136 39 267 117 343
205 l27 31 -101 120 c-55 65 -104 123 -109 128 -5 5 -27 -8 -54 -33 -26 -24
-76 -57 -113 -74 -64 -30 -73 -32 -187 -32 -102 0 -127 3 -166 21 -81 38 -153
126 -174 217 l-7 27 476 0 476 0 0 133 c0 298 -60 485 -200 627 -74 75 -161
127 -265 160 -91 29 -316 37 -415 15z m298 -381 c70 -35 103 -90 110 -185 l5
-69 -243 0 -243 0 7 43 c10 65 59 161 98 190 49 37 75 46 149 46 51 1 76 -5
117 -25z"/>
<path d="M62080 9456 c-244 -52 -413 -181 -464 -355 -9 -30 -16 -72 -16 -93
l0 -38 239 0 238 0 6 46 c8 77 71 124 164 124 115 0 174 -68 181 -207 l5 -83
-64 0 c-123 0 -327 -20 -405 -40 -92 -23 -202 -75 -258 -121 -119 -99 -174
-296 -130 -464 20 -80 56 -139 122 -203 189 -181 535 -192 710 -23 27 26 44
37 46 29 3 -7 12 -37 21 -65 l17 -53 239 0 c264 0 252 -4 223 66 -37 88 -43
177 -44 599 0 446 -5 493 -56 602 -56 119 -195 224 -356 269 -75 22 -334 28
-418 10z m350 -991 l0 -124 -32 -37 c-46 -52 -119 -84 -193 -84 -70 0 -114 22
-145 72 -38 63 -20 177 37 234 45 45 108 62 231 63 l102 1 0 -125z"/>
<path d="M67310 9464 c-106 -20 -191 -65 -271 -141 l-57 -54 -7 86 -7 85 -224
0 -224 0 0 -765 0 -765 240 0 240 0 0 547 0 546 40 38 c47 45 91 59 180 59 90
0 147 -29 178 -90 22 -44 22 -45 22 -572 l0 -528 240 0 240 0 0 553 c0 577 -3
616 -47 738 -24 68 -83 149 -136 187 -75 54 -147 75 -272 78 -60 1 -121 0
-135 -2z"/>
<path d="M68620 9456 c-240 -51 -401 -172 -459 -344 -12 -34 -21 -80 -21 -102
l0 -40 239 0 238 0 6 46 c8 77 71 124 164 124 115 0 174 -68 181 -207 l5 -83
-64 0 c-123 0 -327 -20 -405 -40 -264 -67 -404 -229 -404 -468 0 -124 46 -230
136 -318 169 -162 471 -193 662 -67 29 19 61 46 72 60 14 18 21 21 24 12 2 -8
12 -38 21 -66 l17 -53 244 0 c134 0 244 2 244 4 0 2 -9 25 -21 51 -42 94 -48
175 -49 610 0 446 -5 499 -57 605 -56 116 -196 223 -349 265 -82 23 -336 29
-424 11z m350 -991 l0 -124 -32 -37 c-69 -78 -211 -110 -286 -64 -73 45 -93
140 -48 235 39 85 104 113 264 114 l102 1 0 -125z"/>
<path d="M72667 9454 c-133 -29 -240 -83 -336 -169 -52 -47 -122 -152 -154
-232 -52 -129 -61 -185 -62 -383 0 -213 9 -263 77 -400 33 -68 59 -102 127
-171 72 -71 102 -93 181 -131 141 -69 206 -83 390 -83 182 0 245 13 387 81 65
31 112 63 158 105 36 34 65 66 65 73 0 9 -75 102 -182 224 l-28 33 -48 -42
c-26 -23 -76 -56 -112 -73 -62 -30 -71 -31 -190 -31 -111 0 -130 3 -167 23
-67 35 -110 79 -143 144 -53 108 -98 97 443 100 l472 3 -1 155 c0 171 -13 257
-54 371 -79 219 -246 361 -478 405 -93 18 -257 17 -345 -2z m281 -370 c82 -34
132 -117 132 -221 l0 -43 -241 0 -242 0 7 46 c13 95 70 183 141 215 50 23 152
25 203 3z"/>
<path d="M79206 9454 c-91 -22 -193 -81 -266 -154 -137 -137 -210 -354 -210
-625 0 -390 158 -671 430 -766 54 -19 86 -23 190 -23 147 -1 206 17 296 90
l54 44 0 -70 c0 -89 -27 -164 -77 -212 -51 -48 -88 -66 -170 -78 -133 -21
-282 22 -376 109 l-45 42 -96 -136 c-53 -75 -96 -140 -96 -145 0 -20 110 -105
185 -140 210 -102 469 -116 710 -39 155 49 266 128 344 245 55 81 86 165 101
269 6 41 10 377 10 823 l0 752 -220 0 -219 0 -7 -60 c-4 -33 -9 -60 -12 -60
-2 0 -25 18 -49 41 -104 96 -304 135 -477 93z m377 -365 c21 -6 56 -26 78 -46
l39 -35 0 -333 0 -333 -39 -35 c-49 -45 -105 -60 -197 -55 -56 2 -79 9 -110
29 -89 59 -134 168 -142 340 -10 238 53 406 172 460 46 21 140 25 199 8z"/>
<path d="M82687 9451 c-162 -36 -312 -127 -388 -237 -39 -56 -69 -145 -69
-201 l0 -43 234 0 c251 0 246 -1 246 52 0 60 79 118 163 118 119 0 176 -63
185 -207 l5 -83 -64 0 c-123 0 -327 -20 -405 -40 -166 -43 -299 -132 -353
-238 -76 -148 -66 -347 24 -479 161 -238 576 -288 772 -93 l41 41 12 -38 c6
-21 16 -50 22 -65 l10 -28 239 0 c258 0 256 -1 228 53 -38 71 -42 114 -48 602
-7 465 -8 482 -29 544 -60 168 -172 269 -367 331 -102 32 -334 38 -458 11z
m373 -986 l0 -124 -32 -37 c-46 -52 -119 -84 -191 -84 -100 0 -158 46 -165
133 -6 72 12 131 53 172 47 46 108 63 233 64 l102 1 0 -125z"/>
<path d="M87673 9452 c-28 -10 -68 -31 -88 -46 -37 -29 -115 -121 -115 -137 0
-5 -4 -9 -10 -9 -5 0 -10 17 -10 38 0 20 -3 61 -6 90 l-7 52 -223 0 -224 0 0
-765 0 -765 240 0 240 0 0 487 c0 486 0 487 22 519 55 80 152 110 320 101
l107 -6 3 217 c2 119 0 221 -5 227 -4 5 -49 11 -100 12 -70 3 -104 -1 -144
-15z"/>
<path d="M88475 9450 c-174 -38 -343 -149 -408 -269 -24 -43 -56 -157 -57
-198 0 -10 54 -13 239 -13 l239 0 7 37 c16 88 72 132 168 133 123 0 187 -82
187 -239 l0 -48 -162 -7 c-90 -4 -198 -14 -241 -22 -324 -62 -477 -227 -465
-503 3 -82 8 -106 36 -164 78 -168 266 -277 477 -277 138 0 240 36 325 116
l48 45 19 -63 19 -63 242 -3 c133 -1 242 1 242 5 0 3 -12 41 -27 82 l-27 76
-6 480 c-7 521 -7 520 -67 640 -55 108 -196 210 -348 251 -97 26 -329 28 -440
4z m375 -984 c0 -119 -1 -126 -26 -155 -43 -51 -107 -83 -179 -89 -77 -6 -113
7 -155 55 -26 29 -30 41 -30 94 0 91 32 154 95 187 47 24 82 30 193 31 l102 1
0 -124z"/>
<path d="M90336 9454 c-81 -20 -171 -70 -233 -130 -57 -57 -63 -54 -63 24 0
99 19 92 -236 92 l-224 0 0 -765 0 -765 240 0 240 0 0 543 0 543 38 36 c51 51
98 68 184 68 93 0 145 -24 179 -83 l24 -42 3 -532 3 -533 240 0 240 0 -3 568
c-4 543 -5 570 -25 644 -54 190 -146 290 -308 333 -73 19 -219 18 -299 -1z"/>
<path d="M91650 9455 c-168 -34 -301 -115 -380 -230 -76 -110 -92 -279 -38
-397 71 -154 220 -246 510 -317 174 -42 231 -65 267 -107 38 -42 40 -87 8
-135 -34 -52 -86 -73 -179 -72 -135 1 -222 61 -235 163 l-6 40 -223 0 -224 0
0 -23 c0 -39 30 -139 56 -186 83 -153 263 -267 476 -301 98 -16 310 -8 398 15
182 47 341 165 391 290 19 50 24 78 24 165 0 97 -2 110 -31 171 -42 89 -117
160 -219 210 -76 36 -132 53 -383 113 -115 28 -165 54 -193 100 -36 59 -15
128 52 173 36 24 52 27 113 27 111 0 173 -46 183 -138 l6 -46 240 0 240 0 -5
63 c-17 211 -215 380 -500 427 -86 14 -269 11 -348 -5z"/>
<path d="M94277 9454 c-240 -53 -410 -198 -496 -423 -48 -125 -56 -180 -55
-366 1 -198 17 -275 85 -415 57 -117 180 -241 289 -293 129 -61 184 -72 370
-72 160 0 168 2 257 32 175 61 302 168 382 321 64 124 82 203 88 382 6 178 -4
266 -46 388 -39 112 -83 183 -167 268 -77 78 -185 139 -299 170 -86 23 -320
28 -408 8z m289 -373 c51 -23 98 -80 126 -151 18 -46 22 -81 26 -219 5 -180
-5 -257 -43 -331 -46 -90 -113 -130 -218 -130 -114 0 -192 63 -233 186 -27 82
-28 380 -2 465 25 80 74 148 127 176 56 29 157 31 217 4z"/>
<path d="M96113 9456 c-77 -24 -142 -78 -209 -172 l-21 -29 -8 93 -7 92 -224
0 -224 0 0 -765 0 -765 240 0 240 0 0 488 0 487 25 37 c15 23 46 47 82 65 56
27 64 28 201 28 l142 -1 0 222 0 222 -31 6 c-51 10 -161 6 -206 -8z"/>
<path d="M97276 9455 c-81 -21 -169 -70 -233 -130 -29 -28 -56 -49 -58 -46 -3
2 -5 23 -5 45 0 23 -3 58 -6 79 l-7 37 -223 0 -224 0 0 -765 0 -765 240 0 240
0 0 533 0 533 25 35 c14 19 47 46 73 61 39 23 59 28 118 28 85 0 128 -23 159
-85 19 -38 20 -63 23 -572 l3 -533 240 0 239 0 0 540 0 539 32 37 c45 51 99
74 178 74 81 0 126 -22 154 -76 20 -38 21 -57 24 -576 l3 -538 240 0 240 0 -3
578 c-4 564 -4 579 -26 651 -30 99 -55 145 -110 203 -80 86 -193 128 -342 128
-161 0 -277 -46 -384 -152 -38 -38 -70 -67 -71 -66 -1 2 -12 20 -24 40 -34 57
-115 124 -179 149 -74 28 -249 36 -336 14z"/>
<path d="M99498 9460 c-214 -39 -392 -153 -459 -295 -25 -53 -49 -142 -49
-181 0 -11 44 -14 240 -14 l240 0 0 23 c0 12 9 41 20 65 45 99 219 112 292 21
29 -36 48 -111 48 -191 l0 -38 -72 0 c-127 -1 -310 -19 -397 -40 -264 -64
-401 -220 -401 -458 0 -147 42 -247 140 -335 197 -177 541 -185 706 -16 l39
40 21 -63 21 -63 241 -3 c133 -1 242 0 242 3 0 2 -12 40 -27 82 l-27 78 -7
475 c-5 404 -8 484 -23 534 -51 179 -190 307 -391 362 -69 19 -323 28 -397 14z
m332 -992 c0 -114 -1 -123 -25 -154 -84 -110 -287 -127 -346 -30 -24 40 -26
144 -3 189 46 90 102 114 272 116 l102 1 0 -122z"/>
<path d="M102875 9456 c-164 -39 -260 -92 -363 -200 -82 -86 -137 -190 -174
-326 -20 -74 -23 -108 -22 -260 1 -203 16 -278 85 -420 57 -115 179 -239 289
-292 127 -62 183 -73 370 -73 160 0 168 2 257 32 248 86 402 267 457 535 18
89 21 309 6 406 -40 243 -172 438 -361 530 -46 23 -111 49 -144 58 -83 22
-321 28 -400 10z m280 -375 c91 -41 140 -140 155 -309 9 -103 0 -264 -18 -327
-38 -129 -120 -195 -244 -195 -117 0 -191 59 -231 185 -19 61 -22 92 -22 240
0 192 12 248 67 331 45 66 101 94 187 94 42 0 81 -7 106 -19z"/>
<path d="M104750 9455 c-95 -27 -159 -62 -224 -125 l-63 -60 -7 46 c-3 26 -6
64 -6 85 l0 39 -225 0 -225 0 0 -765 0 -765 240 0 240 0 0 548 0 548 33 32
c47 45 95 62 180 62 94 0 152 -27 181 -85 20 -39 21 -58 24 -572 l3 -533 239
0 240 0 0 543 c-1 583 -4 636 -53 755 -46 115 -126 195 -234 234 -77 28 -263
35 -343 13z"/>
<path d="M50792 8873 c4 -622 4 -613 67 -748 80 -171 240 -253 471 -242 153 7
252 48 343 142 19 19 37 35 41 35 3 0 6 -13 6 -29 0 -15 3 -49 6 -75 l7 -46
223 0 224 0 0 765 0 765 -240 0 -240 0 0 -537 0 -536 -25 -33 c-14 -18 -49
-45 -80 -59 -48 -24 -64 -27 -137 -24 -67 3 -89 8 -116 27 -69 50 -67 28 -70
625 l-3 537 -240 0 -240 0 3 -567z"/>
<path d="M56622 9423 c3 -10 123 -359 266 -776 l261 -757 -25 -67 c-48 -127
-89 -157 -232 -169 l-82 -7 2 -166 3 -166 50 -13 c75 -19 229 -18 300 2 141
41 236 119 300 246 26 51 641 1790 663 1873 4 16 -13 17 -250 17 l-254 0 -123
-417 c-68 -230 -126 -421 -130 -426 -4 -4 -61 184 -126 418 l-119 425 -254 0
c-237 0 -254 -1 -250 -17z"/>
<path d="M78010 8675 l0 -765 240 0 240 0 0 765 0 765 -240 0 -240 0 0 -765z"/>
<path d="M80480 8675 l0 -765 240 0 240 0 0 765 0 765 -240 0 -240 0 0 -765z"/>
<path d="M101600 8675 l0 -765 240 0 240 0 0 765 0 765 -240 0 -240 0 0 -765z"/>
<path d="M105860 8361 c-109 -33 -180 -125 -180 -231 0 -168 172 -279 351
-227 110 33 173 115 173 227 0 104 -54 184 -151 220 -55 20 -145 25 -193 11z"/>
<path d="M106740 8361 c-109 -33 -180 -125 -180 -231 0 -168 172 -279 351
-227 110 33 173 115 173 227 0 104 -54 184 -151 220 -55 20 -145 25 -193 11z"/>
<path d="M107620 8361 c-109 -33 -180 -125 -180 -231 0 -168 172 -279 351
-227 110 33 173 115 173 227 0 104 -54 184 -151 220 -55 20 -145 25 -193 11z"/>
</g>
</svg>
